<?xml version="1.0" encoding="iso-8859-1"?>
<!-- Uploaded to: SVG Repo, www.svgrepo.com, Generator: SVG Repo Mixer Tools -->
<svg height="800px" width="800px" version="1.1" id="Layer_1" xmlns="http://www.w3.org/2000/svg" xmlns:xlink="http://www.w3.org/1999/xlink" 
	 viewBox="0 0 512 512" xml:space="preserve">
<circle style="fill:#FFC066;" cx="256" cy="256" r="256"/>
<path style="fill:#FFAD38;" d="M256,19.692C125.7,19.692,19.692,125.7,19.692,256S125.7,492.308,256,492.308
	S492.308,386.3,492.308,256S386.3,19.692,256,19.692z M391.655,428.355l-4.903-6.748c-2.739-3.771-8.018-4.606-11.788-1.868
	c-3.771,2.74-4.607,8.018-1.868,11.788l4.914,6.763c-8.019,5.384-16.413,10.247-25.131,14.554l-3.416-7.673
	c-1.896-4.258-6.884-6.173-11.142-4.277c-4.258,1.896-6.173,6.884-4.277,11.142l3.428,7.699c-8.936,3.586-18.157,6.601-27.625,8.999
	l-1.757-8.265c-0.969-4.56-5.452-7.472-10.009-6.501c-4.56,0.969-7.47,5.451-6.501,10.009l1.755,8.258
	c-9.441,1.625-19.087,2.64-28.895,3.013v-8.418c0-4.661-3.779-8.44-8.44-8.44s-8.44,3.779-8.44,8.44v8.418
	c-9.808-0.374-19.454-1.389-28.895-3.013l1.755-8.258c0.969-4.559-1.941-9.04-6.501-10.009c-4.56-0.971-9.04,1.942-10.009,6.501
	l-1.757,8.265c-9.467-2.397-18.69-5.413-27.626-8.999l3.428-7.699c1.896-4.258-0.019-9.246-4.277-11.142
	c-4.259-1.896-9.247,0.019-11.142,4.277l-3.416,7.673c-8.717-4.308-17.112-9.17-25.131-14.554l4.914-6.763
	c2.74-3.771,1.903-9.048-1.868-11.788c-3.772-2.741-9.049-1.903-11.788,1.868l-4.903,6.748c-7.61-6.002-14.806-12.505-21.557-19.444
	l6.18-5.564c3.464-3.119,3.744-8.455,0.625-11.919c-3.119-3.465-8.455-3.744-11.919-0.625l-6.19,5.573
	c-6.196-7.425-11.908-15.264-17.094-23.469l7.243-4.183c4.036-2.33,5.419-7.492,3.089-11.528c-2.33-4.037-7.491-5.42-11.528-3.089
	l-7.265,4.195c-4.512-8.525-8.488-17.375-11.863-26.516l8.029-2.608c4.432-1.44,6.859-6.201,5.418-10.635
	c-1.44-4.434-6.204-6.856-10.635-5.418l-8.041,2.613c-2.619-9.242-4.632-18.734-6.022-28.424l8.39-0.882
	c4.635-0.487,7.998-4.641,7.511-9.276s-4.641-7.994-9.276-7.511l-8.377,0.88c-0.315-4.803-0.493-9.644-0.493-14.525
	s0.178-9.722,0.493-14.525l8.377,0.88c0.3,0.032,0.598,0.047,0.892,0.047c4.265,0,7.926-3.223,8.383-7.557
	c0.487-4.636-2.876-8.788-7.511-9.276l-8.39-0.882c1.391-9.69,3.404-19.183,6.022-28.424l8.041,2.613
	c0.866,0.281,1.745,0.415,2.61,0.415c3.558,0,6.866-2.267,8.024-5.833c1.44-4.432-0.985-9.195-5.418-10.635l-8.029-2.608
	c3.375-9.141,7.35-17.991,11.863-26.516l7.265,4.195c1.329,0.767,2.781,1.132,4.212,1.132c2.917,0,5.754-1.515,7.317-4.221
	c2.33-4.036,0.947-9.198-3.089-11.528l-7.243-4.183c5.186-8.204,10.898-16.044,17.094-23.469l6.19,5.573
	c1.614,1.453,3.632,2.167,5.644,2.167c2.309,0,4.608-0.942,6.275-2.792c3.118-3.464,2.839-8.8-0.625-11.919l-6.18-5.564
	c6.751-6.938,13.947-13.441,21.557-19.444l4.903,6.748c1.652,2.273,4.225,3.479,6.835,3.479c1.719,0,3.456-0.524,4.953-1.613
	c3.771-2.74,4.607-8.018,1.868-11.788l-4.914-6.763c8.019-5.384,16.413-10.247,25.131-14.554l3.416,7.673
	c1.4,3.143,4.483,5.01,7.715,5.01c1.147,0,2.312-0.235,3.428-0.731c4.258-1.896,6.173-6.884,4.277-11.142l-3.428-7.699
	c8.936-3.586,18.157-6.601,27.626-8.999l1.757,8.265c0.843,3.968,4.347,6.686,8.247,6.686c0.582,0,1.171-0.061,1.762-0.187
	c4.56-0.969,7.47-5.451,6.501-10.009l-1.755-8.258c9.441-1.625,19.087-2.64,28.895-3.013v8.418c0,4.661,3.779,8.44,8.44,8.44
	c4.661,0,8.44-3.779,8.44-8.44V36.75c9.808,0.374,19.454,1.389,28.895,3.013l-1.755,8.258c-0.969,4.558,1.941,9.04,6.501,10.009
	c0.591,0.126,1.182,0.187,1.762,0.187c3.9,0,7.404-2.72,8.247-6.686l1.757-8.265c9.467,2.397,18.69,5.413,27.625,8.999l-3.428,7.699
	c-1.896,4.258,0.019,9.246,4.277,11.142c1.115,0.496,2.281,0.731,3.428,0.731c3.232,0,6.316-1.867,7.715-5.01l3.416-7.673
	c8.718,4.308,17.112,9.17,25.131,14.554l-4.914,6.763c-2.74,3.771-1.903,9.048,1.868,11.788c1.498,1.088,3.234,1.613,4.953,1.613
	c2.61,0,5.183-1.206,6.835-3.479l4.903-6.748c7.61,6.002,14.806,12.505,21.557,19.444l-6.18,5.564
	c-3.464,3.119-3.744,8.455-0.625,11.919c1.667,1.851,3.965,2.792,6.275,2.792c2.012,0,4.032-0.716,5.644-2.167l6.19-5.573
	c6.196,7.425,11.908,15.264,17.094,23.469l-7.243,4.183c-4.036,2.33-5.419,7.492-3.089,11.528c1.563,2.707,4.4,4.221,7.317,4.221
	c1.431,0,2.883-0.365,4.212-1.132l7.265-4.195c4.512,8.525,8.488,17.375,11.863,26.516l-8.029,2.608
	c-4.432,1.44-6.859,6.201-5.418,10.635c1.159,3.566,4.467,5.833,8.024,5.833c0.864,0,1.743-0.134,2.609-0.415l8.041-2.613
	c2.618,9.242,4.632,18.734,6.022,28.424l-8.39,0.882c-4.635,0.487-7.998,4.641-7.511,9.276c0.456,4.336,4.118,7.557,8.383,7.557
	c0.295,0,0.593-0.016,0.892-0.047l8.377-0.88c0.315,4.803,0.493,9.644,0.493,14.525s-0.178,9.722-0.493,14.525l-8.377-0.88
	c-4.633-0.485-8.788,2.876-9.276,7.511c-0.487,4.636,2.876,8.788,7.511,9.276l8.39,0.882c-1.391,9.69-3.404,19.183-6.022,28.424
	l-8.041-2.613c-4.435-1.441-9.195,0.986-10.635,5.418c-1.44,4.432,0.985,9.195,5.418,10.635l8.029,2.608
	c-3.375,9.141-7.35,17.991-11.863,26.516l-7.265-4.195c-4.038-2.332-9.198-0.947-11.528,3.089c-2.33,4.036-0.947,9.198,3.089,11.528
	l7.243,4.183c-5.186,8.204-10.898,16.044-17.094,23.469l-6.19-5.573c-3.464-3.118-8.8-2.838-11.919,0.625
	c-3.118,3.464-2.839,8.8,0.625,11.919l6.18,5.564C406.46,415.85,399.264,422.353,391.655,428.355z"/>
<g>
	<path style="fill:#FD9A0C;" d="M279.515,324.786h-4.969V176.829v-18.614l-45.62,21.21c-4.227,1.965-6.06,6.985-4.095,11.211
		c1.43,3.075,4.476,4.884,7.659,4.884c1.191,0,2.401-0.254,3.552-0.789l4.745-2.206v132.263h-4.969c-4.661,0-8.44,3.779-8.44,8.44
		s3.779,8.44,8.44,8.44h43.697c4.661,0,8.44-3.779,8.44-8.44S284.177,324.786,279.515,324.786z"/>
	<path style="fill:#FD9A0C;" d="M369.665,157.809c-2.251,0-4.494-0.893-6.155-2.665c-28.176-30.021-66.356-46.555-107.51-46.555
		c-41.151,0-79.332,16.533-107.506,46.553c-3.189,3.398-8.531,3.567-11.93,0.378c-3.398-3.19-3.567-8.531-0.378-11.93
		C167.13,110.619,210.801,91.71,256,91.71c45.2,0,88.873,18.911,119.818,51.884c3.189,3.398,3.02,8.74-0.378,11.929
		C373.811,157.051,371.736,157.809,369.665,157.809z"/>
</g>
<path style="fill:#FFAD38;" d="M141.826,362.515c-4.069,0-8.166-0.401-12.247-1.211c-16.31-3.236-30.382-12.631-39.625-26.452
	c-9.244-13.822-12.552-30.415-9.315-46.725l10.614-53.478c0.907-4.572,5.351-7.545,9.92-6.635c4.572,0.907,7.543,5.348,6.635,9.92
	l-10.614,53.478c-2.36,11.887,0.052,23.982,6.789,34.055c6.737,10.075,16.995,16.921,28.881,19.28
	c11.887,2.359,23.981-0.051,34.055-6.789c10.073-6.737,16.921-16.995,19.28-28.881l10.614-53.476
	c0.908-4.572,5.348-7.545,9.92-6.635c4.572,0.907,7.543,5.348,6.635,9.92l-10.614,53.476c-3.236,16.31-12.631,30.382-26.453,39.625
	C165.94,358.921,154.017,362.515,141.826,362.515z"/>
<path style="fill:#FD9A0C;" d="M145.39,238.288l-26.658,134.315c-0.908,4.572,2.063,9.013,6.635,9.92
	c0.555,0.11,1.107,0.163,1.652,0.163c3.945,0,7.472-2.782,8.27-6.799l26.477-133.402L145.39,238.288z"/>
<g>
	<path style="fill:#FFAD38;" d="M168.322,166.1c-4.572-0.908-9.013,2.064-9.92,6.635l-13.01,65.554l16.375,4.197l13.192-66.465
		C175.865,171.448,172.894,167.007,168.322,166.1z"/>
	<path style="fill:#FFAD38;" d="M130.802,248.359l-13.593,54.61c-0.011,0,18.747,26.219,18.747,26.219l27.344-17.07l8.293-55.656
		L130.802,248.359z"/>
</g>
<polygon style="fill:#FD9A0C;" points="179.965,200.243 171.593,256.461 146.803,274.545 130.802,248.359 144.519,193.21 
	157.651,219.89 "/>
<path style="fill:#FFAD38;" d="M370.174,362.515c4.069,0,8.166-0.401,12.247-1.211c16.31-3.236,30.382-12.631,39.625-26.452
	c9.244-13.822,12.552-30.415,9.315-46.725l-10.614-53.478c-0.907-4.572-5.351-7.545-9.92-6.635c-4.572,0.907-7.543,5.348-6.635,9.92
	l10.614,53.478c2.36,11.887-0.052,23.982-6.789,34.055c-6.737,10.075-16.995,16.921-28.881,19.28
	c-11.887,2.359-23.981-0.051-34.055-6.789c-10.073-6.737-16.921-16.995-19.28-28.881l-10.614-53.476
	c-0.908-4.572-5.348-7.545-9.92-6.635c-4.572,0.907-7.543,5.348-6.635,9.92l10.614,53.476c3.236,16.31,12.631,30.382,26.453,39.625
	C346.06,358.921,357.983,362.515,370.174,362.515z"/>
<path style="fill:#FD9A0C;" d="M366.61,238.288l26.658,134.315c0.908,4.572-2.063,9.013-6.635,9.92
	c-0.555,0.11-1.107,0.163-1.652,0.163c-3.945,0-7.472-2.782-8.27-6.799l-26.477-133.402L366.61,238.288z"/>
<g>
	<path style="fill:#FFAD38;" d="M343.678,166.1c4.572-0.908,9.013,2.064,9.92,6.635l13.01,65.554l-16.375,4.197l-13.192-66.465
		C336.135,171.448,339.106,167.007,343.678,166.1z"/>
	<path style="fill:#FFAD38;" d="M381.198,248.359l13.593,54.61c0.011,0-18.747,26.219-18.747,26.219l-27.344-17.07l-8.293-55.656
		L381.198,248.359z"/>
</g>
<g>
	<polygon style="fill:#FD9A0C;" points="332.035,200.243 340.407,256.461 365.197,274.545 381.198,248.359 367.481,193.21 
		354.349,219.89 	"/>
	<path style="fill:#FD9A0C;" d="M284.417,419.165h-56.833c-4.661,0-8.44-3.779-8.44-8.44c0-4.661,3.779-8.44,8.44-8.44h56.833
		c4.661,0,8.44,3.779,8.44,8.44C292.856,415.386,289.077,419.165,284.417,419.165z"/>
	<path style="fill:#FD9A0C;" d="M297.92,380.415h-83.84c-4.661,0-8.44-3.779-8.44-8.44c0-4.661,3.779-8.44,8.44-8.44h83.84
		c4.661,0,8.44,3.779,8.44,8.44C306.359,376.636,302.581,380.415,297.92,380.415z"/>
</g>
</svg>