<?xml version="1.0" encoding="iso-8859-1"?>
<!-- Uploaded to: SVG Repo, www.svgrepo.com, Generator: SVG Repo Mixer Tools -->
<svg height="800px" width="800px" version="1.1" id="Layer_1" xmlns="http://www.w3.org/2000/svg" xmlns:xlink="http://www.w3.org/1999/xlink" 
	 viewBox="0 0 512 512" xml:space="preserve">
<circle style="fill:#FFC066;" cx="256" cy="256" r="256"/>
<g>
	<path style="fill:#FD9A0C;" d="M256,37.134c4.964,0,9.002-4.039,9.002-9.002S260.964,19.13,256,19.13
		c-4.964,0-9.002,4.039-9.002,9.002S251.036,37.134,256,37.134z"/>
	<path style="fill:#FD9A0C;" d="M208.623,42.113c0.629,0,1.26-0.066,1.868-0.196c2.354-0.498,4.373-1.886,5.683-3.905
		c1.311-2.019,1.757-4.427,1.254-6.78c-0.881-4.128-4.583-7.124-8.803-7.124c-0.629,0-1.26,0.066-1.876,0.198
		c-2.353,0.501-4.369,1.888-5.678,3.907c-1.308,2.016-1.752,4.422-1.256,6.748C200.684,39.106,204.388,42.113,208.623,42.113z"/>
	<path style="fill:#FD9A0C;" d="M163.318,56.834c1.27,0,2.504-0.262,3.654-0.775c2.2-0.977,3.887-2.751,4.75-4.998
		c0.863-2.245,0.799-4.69-0.178-6.889c-1.444-3.245-4.672-5.343-8.226-5.343c-1.27,0-2.504,0.262-3.665,0.78
		c-4.53,2.02-6.577,7.35-4.561,11.883C156.536,54.738,159.765,56.834,163.318,56.834z"/>
	<path style="fill:#FD9A0C;" d="M122.063,80.653c1.91,0,3.737-0.592,5.293-1.721c4.013-2.918,4.905-8.557,1.994-12.566
		c-1.688-2.328-4.412-3.718-7.288-3.718c-1.91,0-3.737,0.592-5.284,1.714c-1.951,1.414-3.233,3.506-3.609,5.887
		c-0.375,2.381,0.203,4.764,1.606,6.684C116.463,79.262,119.187,80.653,122.063,80.653z"/>
	<path style="fill:#FD9A0C;" d="M54.158,149.862c1.367,0.79,2.925,1.206,4.502,1.206c3.21,0,6.2-1.728,7.789-4.489
		c1.206-2.083,1.529-4.51,0.909-6.836c-0.62-2.326-2.111-4.269-4.196-5.473c-1.367-0.79-2.925-1.206-4.502-1.206
		c-3.21,0-6.2,1.728-7.789,4.489c-1.206,2.083-1.529,4.51-0.909,6.836S52.073,148.658,54.158,149.862z"/>
	<path style="fill:#FD9A0C;" d="M42.068,177.024c-0.9-0.293-1.838-0.442-2.785-0.442c-3.916,0-7.358,2.505-8.563,6.232
		c-0.739,2.284-0.546,4.719,0.544,6.859c1.095,2.146,2.958,3.736,5.236,4.473c0.901,0.293,1.839,0.442,2.786,0.442
		c3.904,0,7.341-2.494,8.563-6.232c0.739-2.284,0.546-4.719-0.544-6.859C46.211,179.351,44.347,177.761,42.068,177.024z"/>
	<path style="fill:#FD9A0C;" d="M28.442,241.135c0.293,0.03,0.644,0.048,0.937,0.048c4.629,0,8.479-3.473,8.952-8.048
		c0.255-2.393-0.439-4.743-1.951-6.615c-1.516-1.872-3.668-3.042-6.046-3.29c-0.298-0.032-0.657-0.051-0.956-0.051
		c-4.628,0-8.477,3.473-8.949,8.048c-0.255,2.393,0.438,4.742,1.951,6.614C23.893,239.713,26.046,240.882,28.442,241.135z"/>
	<path style="fill:#FD9A0C;" d="M36.38,285.48c1.513-1.872,2.207-4.221,1.953-6.586c-0.475-4.605-4.324-8.077-8.954-8.077
		c-0.295,0-0.648,0.019-0.941,0.049c-2.395,0.252-4.546,1.421-6.06,3.293c-1.515,1.872-2.207,4.221-1.955,6.584
		c0.476,4.606,4.324,8.078,8.953,8.078c0.294,0,0.647-0.019,0.938-0.048C32.712,288.52,34.864,287.351,36.38,285.48z"/>
	<path style="fill:#FD9A0C;" d="M39.286,317.413c-0.947,0-1.885,0.149-2.772,0.438c-2.292,0.742-4.156,2.332-5.251,4.477
		c-1.09,2.139-1.284,4.574-0.544,6.859c1.205,3.727,4.647,6.232,8.563,6.232c0.947,0,1.885-0.149,2.772-0.438
		c2.292-0.742,4.156-2.332,5.251-4.477c1.09-2.139,1.284-4.574,0.536-6.886C46.628,319.907,43.189,317.413,39.286,317.413z"/>
	<path style="fill:#FD9A0C;" d="M58.661,360.932c-1.578,0-3.135,0.417-4.502,1.206c-2.085,1.204-3.575,3.147-4.196,5.473
		c-0.621,2.326-0.298,4.753,0.897,6.814c1.601,2.783,4.591,4.511,7.802,4.511c1.578,0,3.135-0.417,4.502-1.206
		c2.085-1.204,3.575-3.147,4.196-5.473s0.298-4.753-0.897-6.814C64.861,362.66,61.87,360.932,58.661,360.932z"/>
	<path style="fill:#FD9A0C;" d="M86.661,399.471c-2.23,0-4.373,0.823-6.021,2.311c-3.69,3.321-3.99,9.024-0.67,12.713
		c1.705,1.894,4.143,2.98,6.691,2.98c2.227,0,4.366-0.82,6.029-2.318c3.681-3.322,3.977-9.021,0.667-12.699
		C91.654,400.56,89.212,399.471,86.661,399.471z"/>
	<path style="fill:#FD9A0C;" d="M127.347,433.061c-1.547-1.122-3.375-1.714-5.284-1.714c-2.876,0-5.6,1.39-7.269,3.692
		c-1.422,1.946-1.998,4.33-1.624,6.711c0.376,2.381,1.658,4.473,3.61,5.887c1.546,1.122,3.374,1.714,5.283,1.714
		c2.876,0,5.6-1.39,7.284-3.711C132.261,441.625,131.369,435.985,127.347,433.061z"/>
	<path style="fill:#FD9A0C;" d="M166.983,455.946c-1.161-0.518-2.395-0.78-3.665-0.78c-3.552,0-6.781,2.098-8.226,5.344
		c-2.017,4.531,0.029,9.862,4.561,11.882c1.161,0.518,2.395,0.78,3.665,0.78c3.552,0,6.781-2.098,8.226-5.344
		c0.977-2.198,1.041-4.643,0.178-6.888C170.858,458.692,169.172,456.918,166.983,455.946z"/>
	<path style="fill:#FD9A0C;" d="M210.498,470.084c-0.616-0.132-1.247-0.198-1.876-0.198c-4.236,0-7.94,3.008-8.803,7.126
		c-0.501,2.351-0.057,4.758,1.25,6.774c1.309,2.018,3.325,3.405,5.678,3.907c0.616,0.132,1.247,0.198,1.876,0.198
		c4.22,0,7.922-2.997,8.803-7.124c0.502-2.354,0.057-4.761-1.254-6.78C214.863,471.968,212.845,470.581,210.498,470.084z"/>
	<path style="fill:#FD9A0C;" d="M256,474.866c-4.964,0-9.002,4.039-9.002,9.002c0,4.964,4.039,9.002,9.002,9.002
		c4.964,0,9.002-4.039,9.002-9.002C265.002,478.905,260.964,474.866,256,474.866z"/>
	<path style="fill:#FD9A0C;" d="M303.377,469.887c-0.629,0-1.26,0.066-1.868,0.196c-2.354,0.499-4.373,1.886-5.683,3.905
		c-1.311,2.019-1.757,4.427-1.254,6.78c0.881,4.128,4.583,7.124,8.803,7.124c0.629,0,1.26-0.066,1.876-0.198
		c2.353-0.501,4.369-1.888,5.678-3.907c1.308-2.016,1.752-4.422,1.256-6.748C311.316,472.894,307.612,469.887,303.377,469.887z"/>
	<path style="fill:#FD9A0C;" d="M348.682,455.166c-1.27,0-2.504,0.262-3.654,0.775c-2.2,0.977-3.887,2.751-4.75,4.998
		c-0.863,2.245-0.799,4.69,0.178,6.889c1.444,3.245,4.672,5.343,8.226,5.343c1.27,0,2.504-0.262,3.665-0.78
		c4.53-2.02,6.577-7.35,4.561-11.883C355.464,457.262,352.235,455.166,348.682,455.166z"/>
	<path style="fill:#FD9A0C;" d="M389.937,431.347c-1.91,0-3.737,0.592-5.293,1.721c-4.013,2.918-4.905,8.557-1.994,12.566
		c1.688,2.328,4.412,3.718,7.288,3.718c1.91,0,3.737-0.592,5.284-1.714c1.951-1.414,3.233-3.506,3.609-5.887
		c0.375-2.381-0.203-4.764-1.606-6.684C395.537,432.738,392.813,431.347,389.937,431.347z"/>
	<path style="fill:#FD9A0C;" d="M431.37,401.789c-1.658-1.496-3.799-2.318-6.029-2.318c-2.552,0-4.994,1.088-6.692,2.98
		c-3.315,3.684-3.019,9.385,0.67,12.713c1.656,1.49,3.794,2.311,6.022,2.311c2.549,0,4.987-1.086,6.692-2.98
		C435.351,410.806,435.05,405.102,431.37,401.789z"/>
	<path style="fill:#FD9A0C;" d="M457.842,362.138c-1.367-0.79-2.925-1.206-4.502-1.206c-3.21,0-6.2,1.728-7.789,4.489
		c-1.206,2.083-1.529,4.51-0.909,6.836s2.111,4.269,4.196,5.473c1.367,0.79,2.925,1.206,4.502,1.206c3.21,0,6.2-1.728,7.789-4.489
		c1.206-2.083,1.529-4.51,0.909-6.836C461.418,365.286,459.927,363.342,457.842,362.138z"/>
	<path style="fill:#FD9A0C;" d="M475.499,317.854c-0.901-0.293-1.839-0.442-2.786-0.442c-3.904,0-7.341,2.494-8.563,6.232
		c-0.739,2.284-0.546,4.719,0.543,6.859c1.095,2.146,2.958,3.736,5.237,4.473c0.9,0.293,1.838,0.442,2.785,0.442
		c3.916,0,7.358-2.505,8.563-6.232c0.739-2.284,0.546-4.719-0.544-6.859C479.642,320.181,477.778,318.591,475.499,317.854z"/>
	<path style="fill:#FD9A0C;" d="M483.558,270.865c-0.293-0.03-0.644-0.048-0.937-0.048c-4.629,0-8.479,3.471-8.952,8.048
		c-0.255,2.393,0.439,4.743,1.951,6.615c1.516,1.872,3.668,3.042,6.046,3.29c0.298,0.032,0.657,0.051,0.956,0.051
		c4.628,0,8.478-3.473,8.949-8.048c0.255-2.393-0.438-4.742-1.951-6.614C488.107,272.287,485.954,271.118,483.558,270.865z"/>
	<path style="fill:#FD9A0C;" d="M475.62,226.52c-1.513,1.872-2.207,4.221-1.953,6.587c0.475,4.605,4.324,8.076,8.954,8.076
		c0.295,0,0.648-0.019,0.941-0.05c2.395-0.252,4.546-1.421,6.06-3.293c1.515-1.872,2.207-4.221,1.955-6.584
		c-0.475-4.606-4.324-8.078-8.953-8.078c-0.294,0-0.647,0.019-0.939,0.048C479.288,223.48,477.136,224.649,475.62,226.52z"/>
	<path style="fill:#FD9A0C;" d="M472.714,194.587c0.947,0,1.885-0.149,2.772-0.438c2.292-0.742,4.156-2.332,5.25-4.477
		c1.09-2.139,1.284-4.574,0.544-6.859c-1.205-3.727-4.647-6.232-8.563-6.232c-0.947,0-1.885,0.149-2.772,0.438
		c-2.292,0.742-4.156,2.332-5.251,4.477c-1.09,2.139-1.284,4.574-0.536,6.886C465.372,192.093,468.811,194.587,472.714,194.587z"/>
	<path style="fill:#FD9A0C;" d="M453.339,133.064c-1.578,0-3.135,0.417-4.502,1.206c-2.085,1.204-3.575,3.147-4.196,5.473
		c-0.621,2.326-0.298,4.753,0.897,6.814c1.601,2.783,4.591,4.511,7.802,4.511c1.578,0,3.135-0.417,4.502-1.206
		c2.085-1.204,3.575-3.147,4.196-5.473s0.298-4.753-0.897-6.814C459.54,134.792,456.55,133.064,453.339,133.064z"/>
	<path style="fill:#FD9A0C;" d="M425.339,112.529c2.23,0,4.373-0.823,6.021-2.311c3.69-3.321,3.99-9.024,0.67-12.713
		c-1.705-1.894-4.143-2.98-6.691-2.98c-2.227,0-4.366,0.82-6.029,2.318c-3.681,3.322-3.977,9.021-0.667,12.699
		C420.346,111.44,422.788,112.529,425.339,112.529z"/>
	<path style="fill:#FD9A0C;" d="M93.358,109.541c3.309-3.677,3.013-9.377-0.667-12.699c-1.664-1.498-3.802-2.318-6.029-2.318
		c-2.549,0-4.987,1.086-6.691,2.98c-3.321,3.69-3.021,9.394,0.67,12.713c1.649,1.488,3.79,2.311,6.021,2.311
		C89.212,112.529,91.654,111.44,93.358,109.541z"/>
	<path style="fill:#FD9A0C;" d="M384.653,78.939c1.547,1.122,3.375,1.714,5.284,1.714c2.876,0,5.6-1.39,7.269-3.692
		c1.422-1.946,1.998-4.33,1.624-6.711c-0.376-2.381-1.658-4.473-3.61-5.887c-1.546-1.122-3.374-1.714-5.283-1.714
		c-2.876,0-5.6,1.39-7.284,3.711C379.739,70.375,380.631,76.015,384.653,78.939z"/>
	<path style="fill:#FD9A0C;" d="M345.017,56.054c1.161,0.518,2.395,0.78,3.665,0.78c3.552,0,6.781-2.098,8.226-5.344
		c2.017-4.531-0.029-9.862-4.561-11.882c-1.161-0.518-2.395-0.78-3.665-0.78c-3.553,0-6.781,2.098-8.226,5.344
		c-0.977,2.198-1.041,4.643-0.178,6.888C341.142,53.308,342.828,55.082,345.017,56.054z"/>
	<path style="fill:#FD9A0C;" d="M301.502,41.916c0.616,0.132,1.247,0.198,1.876,0.198c4.236,0,7.94-3.008,8.803-7.126
		c0.501-2.351,0.057-4.758-1.25-6.774c-1.309-2.018-3.325-3.405-5.678-3.907c-0.616-0.132-1.247-0.198-1.876-0.198
		c-4.22,0-7.922,2.997-8.803,7.124c-0.502,2.354-0.057,4.761,1.254,6.78C297.137,40.032,299.155,41.419,301.502,41.916z"/>
	<polygon style="fill:#FD9A0C;" points="256,114.317 222.141,172.966 289.837,172.932 	"/>
</g>
<path style="fill:#FFAD38;" d="M289.837,172.932c-10.645-3.41-21.999-5.255-33.77-5.255c-11.827,0-23.237,1.845-33.927,5.289
	L152.79,293.078l82.111,18.758h42.198l82.111-18.758L289.837,172.932z"/>
<polygon style="fill:#FFC066;" points="298.198,256 337.989,297.635 258.407,297.635 "/>
<polygon style="fill:#FD9A0C;" points="256,256 216.209,297.635 295.791,297.635 "/>
<polygon style="fill:#FFC066;" points="213.802,256 174.011,297.635 253.593,297.635 "/>
<g>
	<polygon style="fill:#FD9A0C;" points="359.21,293.078 152.79,293.078 133.3,326.836 378.7,326.836 	"/>
	<circle style="fill:#FD9A0C;" cx="256" cy="212.643" r="19.692"/>
</g>
<g>
	<path style="fill:#FFAD38;" d="M74.94,301.525c-3.928,0-7.446-2.757-8.261-6.756c-2.584-12.682-3.893-25.725-3.893-38.769
		c0-42.88,13.754-83.489,39.774-117.437c25.189-32.865,60.88-57.167,100.496-68.431c4.482-1.278,9.151,1.326,10.426,5.81
		c1.275,4.484-1.327,9.151-5.81,10.426C132.303,107.796,79.664,177.553,79.664,256c0,11.914,1.196,23.824,3.555,35.399
		c0.931,4.567-2.018,9.025-6.585,9.955C76.065,301.469,75.498,301.525,74.94,301.525z"/>
	<path style="fill:#FFAD38;" d="M239.111,80.426c-4.318,0-7.998-3.296-8.395-7.679c-0.421-4.642,3.001-8.746,7.644-9.166
		c11.65-1.054,23.629-1.056,35.28,0c4.643,0.42,8.065,4.524,7.645,9.166c-0.42,4.642-4.536,8.065-9.167,7.644
		c-10.645-0.962-21.595-0.962-32.237,0C239.623,80.413,239.366,80.426,239.111,80.426z"/>
	<path style="fill:#FFAD38;" d="M437.06,301.525c-0.558,0-1.125-0.055-1.694-0.171c-4.567-0.931-7.516-5.388-6.585-9.954
		c2.359-11.578,3.554-23.488,3.554-35.399c0-78.447-52.638-148.204-128.007-169.634c-4.483-1.275-7.085-5.943-5.81-10.426
		c1.275-4.483,5.947-7.084,10.426-5.81c39.616,11.264,75.307,35.567,100.497,68.431c26.02,33.948,39.774,74.557,39.774,117.437
		c0,13.041-1.31,26.085-3.895,38.768C444.507,298.766,440.99,301.525,437.06,301.525z"/>
	<path style="fill:#FFAD38;" d="M239.131,448.449c-0.255,0-0.512-0.011-0.772-0.035c-35.363-3.204-69.127-16.121-97.642-37.356
		c-28.004-20.855-49.861-48.856-63.207-80.978c-1.788-4.304,0.251-9.243,4.555-11.031c4.305-1.79,9.244,0.251,11.032,4.555
		c25.221,60.7,81.465,102.084,146.785,108c4.642,0.421,8.065,4.525,7.643,9.166C247.129,445.153,243.448,448.449,239.131,448.449z"
		/>
	<path style="fill:#FFAD38;" d="M272.869,448.449c-4.318,0-7.997-3.296-8.396-7.679c-0.42-4.642,3.002-8.746,7.644-9.166
		c65.32-5.917,121.565-47.301,146.785-108c1.788-4.304,6.726-6.343,11.032-4.555c4.304,1.788,6.344,6.728,4.555,11.031
		c-13.346,32.122-35.203,60.125-63.208,80.978c-28.514,21.235-62.279,34.152-97.641,37.356
		C273.381,448.438,273.124,448.449,272.869,448.449z"/>
</g>
</svg>